<svg id="Capa_1" enable-background="new 0 0 496.7 496.7" height="512" viewBox="0 0 496.7 496.7" width="512" xmlns="http://www.w3.org/2000/svg"><g><path d="m436.245 208.566-37.045-73.863c-4.104-8.183-12.475-13.349-21.629-13.349h-171.935c-7.643 0-14.837 3.611-19.403 9.74l-57.723 77.472-33.291 42.934h366.661z" fill="#fef0ae"/><path d="m305.506 131.094c4.566-6.129 11.76-9.74 19.403-9.74h-119.273c-7.643 0-14.837 3.611-19.403 9.74l-57.723 77.472-33.291 42.934h119.273l33.291-42.934z" fill="#fee45a"/><path d="m402.68 208.57-26.92-53.68c-1.09-2.17-3.3-3.54-5.72-3.54h-11.78l-18.237 14.926v65.031l18.237 10.474h62.35z" fill="#b8ddff"/><path d="m358.26 208.57v33.21h-218.58l26.24-33.21 40.71-54.64c1.21-1.62 3.11-2.58 5.13-2.58h146.5z" fill="#d5eaff"/><path d="m387.89 208.57h-120.67l-25.651 25.71v79.046l25.651 11.334h120.67l25.303-26.897v-53.223c0-1.791-.588-3.532-1.673-4.956z" fill="#fedf30"/><path d="m483.451 238.618 4.845-5.863c-1.707-13.633-13.34-24.185-27.436-24.185h-72.97v116.09h100.63v-54.41l-5.069-2.577z" fill="#fee97d"/><path d="m151.15 208.57h-88.14c-31.7 0-57.4 25.7-57.4 57.4v40.91 17.78h126.94l41.43-10.363v-81.547z" fill="#fee97d"/><g id="XMLID_376_"><g><path d="m211.76 151.35c-2.02 0-3.92.96-5.13 2.58l-40.71 54.64-26.24 33.21h82.349l25.754-33.214 42.631-57.216z" fill="#b8ddff"/></g></g><path d="m337.504 324.657v.003h50.385l25.303-26.897v-48.794c-41.733 0-75.688 33.953-75.688 75.688z" fill="#fed402"/><g fill="#fee45a"><path d="m488.52 317.323c-3.701-38.306-36.067-68.355-75.327-68.355-8.872 0-17.386 1.548-25.303 4.365v71.327h100.63z"/><path d="m173.98 314.297v-17.606c-11.148-27.928-38.453-47.723-70.312-47.723-41.734 0-75.688 33.954-75.688 75.688v.003h104.57z"/><path d="m267.22 208.57v116.09h-134.67v-44.19-38.11c0-1.47.39-2.9 1.13-4.16l17.47-29.63z"/></g><path d="m132.55 254.708v25.762 44.19h46.808c0-.001 0-.002 0-.003 0-31.511-19.361-58.575-46.808-69.949z" fill="#fedf30"/><g id="XMLID_375_"><g><path d="m496.7 313.81v17.78c0 3.82-3.1 6.92-6.93 6.92h-484.16c-3.1 0-5.61-2.51-5.61-5.61v-20.4c0-3.1 2.51-5.62 5.61-5.62h484.16c3.83 0 6.93 3.1 6.93 6.93z" fill="#d7d0d6"/></g></g><g><path d="m27.98 324.657c0 4.733.458 9.358 1.293 13.853h148.792c.835-4.495 1.293-9.12 1.293-13.853 0-6.123-.75-12.072-2.129-17.777h-147.12c-1.379 5.706-2.129 11.654-2.129 17.777z" fill="#b8b2b8"/><circle cx="103.669" cy="324.657" fill="#736572" r="50.689"/><path d="m103.669 324.657c0-18.759 10.212-35.134 25.358-43.899-7.457-4.316-16.122-6.789-25.358-6.789-27.995 0-50.688 22.694-50.688 50.689s22.694 50.689 50.688 50.689c9.236 0 17.906-2.476 25.363-6.792-15.146-8.767-25.363-25.139-25.363-43.898z" fill="#615260"/><path d="m103.669 345.346c-11.407 0-20.688-9.281-20.688-20.688s9.281-20.688 20.688-20.688c11.408 0 20.689 9.281 20.689 20.688s-9.281 20.688-20.689 20.688z" fill="#f9f7f8"/><path d="m337.504 324.657c0 4.733.458 9.358 1.293 13.853h148.791c.835-4.495 1.293-9.12 1.293-13.853 0-6.123-.75-12.072-2.129-17.777h-147.12c-1.378 5.706-2.128 11.654-2.128 17.777z" fill="#b8b2b8"/><circle cx="413.193" cy="324.657" fill="#736572" r="50.689"/><path d="m103.669 324.657c0-7.203 1.509-14.051 4.219-20.253-1.363-.284-2.773-.435-4.219-.435-11.407 0-20.688 9.281-20.688 20.688s9.281 20.688 20.688 20.688c1.446 0 2.867-.151 4.23-.435-2.711-6.202-4.23-13.05-4.23-20.253z" fill="#d7d0d6"/><path d="m413.193 324.657c0-18.759 10.213-35.133 25.359-43.899-7.458-4.316-16.123-6.79-25.359-6.79-27.995 0-50.688 22.694-50.688 50.689s22.694 50.689 50.688 50.689c9.236 0 17.905-2.476 25.363-6.792-15.147-8.765-25.363-25.138-25.363-43.897z" fill="#615260"/><path d="m413.192 345.346c-11.407 0-20.688-9.281-20.688-20.688s9.281-20.688 20.688-20.688c11.408 0 20.689 9.281 20.689 20.688s-9.28 20.688-20.689 20.688z" fill="#f9f7f8"/><path d="m413.193 324.657c0-7.202 1.51-14.049 4.222-20.252-1.364-.284-2.776-.436-4.222-.436-11.407 0-20.688 9.281-20.688 20.688s9.281 20.688 20.688 20.688c1.447 0 2.859-.152 4.224-.436-2.713-6.203-4.224-13.05-4.224-20.252z" fill="#d7d0d6"/><g><path d="m234.069 249.28h-5.387c-4.143 0-7.5-3.358-7.5-7.5s3.357-7.5 7.5-7.5h5.387c4.143 0 7.5 3.358 7.5 7.5s-3.357 7.5-7.5 7.5z" fill="#fef0ae"/></g><g id="XMLID_377_"><g><path d="m48.13 210.53v32.56c0 10.27-8.33 18.6-18.61 18.6h-23.75c1.81-24.65 19.2-44.97 42.36-51.16z" fill="#fedf30"/><path d="m488.52 236.22v34.03h-18.03c-4.75 0-8.61-3.86-8.61-8.61v-20.28c0-4.75 3.86-8.61 8.61-8.61h17.81c.15 1.14.22 2.3.22 3.47z" fill="#e94444"/></g></g></g></g></svg>